# xmcd CD database file
#
# Track frame offsets:
#	150
#	17167
#	35049
#	52008
#	64984
#	83718
#	98148
#	114976
#	134558
#	154934
#
# Disc length: 2318 seconds
#
# Revision: 1
# Processed by: cddbd v1.5.2PL0 Copyright (c) Steve Scherf et al.
# Submitted via: CDex 1.79
#
DISCID=88090c0a
DTITLE=Jackson Taylor and The Sinners - Let The Bad Times Roll
DYEAR=2011
DGENRE=Country
TTITLE0=Old Henry Rifle
TTITLE1=No Show
TTITLE2=Boys In The Band
TTITLE3=Ain't No God In Mexico
TTITLE4=Someone Get Me Out Of Here
TTITLE5=Better Life
TTITLE6=I Ain't Living Long Like This
TTITLE7=Let The Bad Times Roll
TTITLE8=Broken
TTITLE9=Almost Persuaded (live)
EXTD=YEAR: 2011
EXTT0=
EXTT1=
EXTT2=
EXTT3=2011 Version
EXTT4=
EXTT5=
EXTT6=
EXTT7=
EXTT8=
EXTT9=
PLAYORDER=
